<svg width="49" height="54" viewBox="0 0 49 54" fill="none" xmlns="http://www.w3.org/2000/svg">
<path d="M0.124023 7.45579C0.124023 3.62058 3.23307 0.511536 7.06828 0.511536H41.7896C45.6248 0.511536 48.7338 3.62058 48.7338 7.45579V46.3436C48.7338 50.1788 45.6248 53.2879 41.7896 53.2879H7.06829C3.23308 53.2879 0.124023 50.1788 0.124023 46.3436V7.45579Z" fill="#005E92"/>
<path d="M21.7512 36.2439L15.1699 34.0486V19.1342L21.5512 21.2638L28.0612 17.5407L33.6879 19.7916V34.7486L28.2038 32.5542L21.7522 36.2439H21.7512ZM17.0217 21.7073V32.7134L20.7253 33.9477V22.9369L17.0217 21.7073ZM26.2807 20.6888L22.5771 22.8072V33.6403L26.2807 31.5218V20.6888ZM28.2038 19.5907L28.1325 19.6332V30.532L31.8361 32.0135V21.0443L28.2038 19.5907Z" fill="white"/>
</svg>
