<svg width="50" height="54" viewBox="0 0 50 54" fill="none" xmlns="http://www.w3.org/2000/svg">
<path d="M0.713867 7.45579C0.713867 3.62058 3.82292 0.511536 7.65812 0.511536H42.3794C46.2146 0.511536 49.3237 3.62058 49.3237 7.45579V46.3436C49.3237 50.1788 46.2146 53.2879 42.3794 53.2879H7.65813C3.82293 53.2879 0.713867 50.1788 0.713867 46.3436V7.45579Z" fill="#005E92"/>
<path d="M32.426 34.3069H17.6116C16.5888 34.3069 15.7598 33.4778 15.7598 32.4551V21.3443C15.7598 20.3216 16.5888 19.4925 17.6116 19.4925H32.426C33.4487 19.4925 34.2778 20.3216 34.2778 21.3443V32.4551C34.2778 33.4778 33.4487 34.3069 32.426 34.3069ZM17.6116 26.8997V32.4551H32.426V26.8997H17.6116ZM17.6116 21.3443V23.1961H32.426V21.3443H17.6116ZM25.9447 30.6033H19.4634V28.7515H25.9447V30.6033Z" fill="white"/>
</svg>
