<svg width="49" height="54" viewBox="0 0 49 54" fill="none" xmlns="http://www.w3.org/2000/svg">
<path d="M0.304688 7.45579C0.304688 3.62058 3.41374 0.511536 7.24894 0.511536H41.9702C45.8054 0.511536 48.9145 3.62058 48.9145 7.45579V46.3436C48.9145 50.1788 45.8054 53.2879 41.9702 53.2879H7.24895C3.41375 53.2879 0.304688 50.1788 0.304688 46.3436V7.45579Z" fill="#005E92"/>
<path d="M25.4407 36.1291C24.9493 36.1305 24.4778 35.9351 24.1315 35.5865L16.8752 28.3321C16.4923 27.9505 16.296 27.4202 16.3381 26.8812L16.8011 20.8017C16.8672 19.8867 17.5968 19.1598 18.5122 19.0972L24.5916 18.6342C24.6398 18.624 24.687 18.624 24.7351 18.624C25.2256 18.6234 25.6959 18.8188 26.0416 19.1666L33.2979 26.4201C33.6453 26.7674 33.8405 27.2385 33.8405 27.7298C33.8405 28.2211 33.6453 28.6922 33.2979 29.0395L26.7499 35.5865C26.4035 35.935 25.932 36.1303 25.4407 36.1291ZM21.5121 21.9499C20.674 21.9501 19.9405 22.5132 19.7238 23.3228C19.5071 24.1324 19.8611 24.9866 20.587 25.4056C21.3129 25.8245 22.2297 25.7036 22.8222 25.1109L22.8287 25.1053L22.8352 25.0988L22.8278 25.1053C23.3541 24.5744 23.5095 23.779 23.2218 23.089C22.9341 22.399 22.2597 21.9496 21.5121 21.9499Z" fill="white"/>
</svg>
