<svg width="74" height="74" viewBox="0 0 74 74" fill="none" xmlns="http://www.w3.org/2000/svg">
<g filter="url(#filter0_d_212_219)">
<circle cx="37" cy="32.7212" r="20" fill="white"/>
</g>
<path d="M39.9188 25.6624H32.9046C30.6218 25.6624 28.7646 27.5195 28.7646 29.8023V36.8166C28.7646 39.0993 30.6218 40.9564 32.9046 40.9564H39.9189C42.2016 40.9564 44.0587 39.0993 44.0587 36.8166V29.8023C44.0587 27.5195 42.2016 25.6624 39.9188 25.6624V25.6624ZM43.1621 36.8166C43.1621 38.6049 41.7072 40.0598 39.9188 40.0598H32.9046C31.1162 40.0598 29.6613 38.6049 29.6613 36.8166V29.8023C29.6613 28.0139 31.1162 26.559 32.9046 26.559H39.9189C41.7072 26.559 43.1621 28.0139 43.1621 29.8023V36.8166Z" fill="#005E92"/>
<path d="M36.4118 29.1274C34.1059 29.1274 32.23 31.0034 32.23 33.3093C32.23 35.6152 34.1059 37.4912 36.4118 37.4912C38.7178 37.4912 40.5937 35.6152 40.5937 33.3093C40.5937 31.0034 38.7178 29.1274 36.4118 29.1274ZM36.4118 36.5946C34.6004 36.5946 33.1266 35.1208 33.1266 33.3093C33.1266 31.4979 34.6004 30.024 36.4118 30.024C38.2234 30.024 39.6971 31.4979 39.6971 33.3093C39.6971 35.1208 38.2234 36.5946 36.4118 36.5946Z" fill="#005E92"/>
<path d="M40.6937 27.6425C40.0123 27.6425 39.458 28.1968 39.458 28.8781C39.458 29.5596 40.0123 30.114 40.6937 30.114C41.3751 30.114 41.9295 29.5596 41.9295 28.8781C41.9295 28.1967 41.3751 27.6425 40.6937 27.6425ZM40.6937 29.2172C40.5068 29.2172 40.3546 29.0651 40.3546 28.8781C40.3546 28.6911 40.5068 28.5391 40.6937 28.5391C40.8807 28.5391 41.0329 28.6911 41.0329 28.8781C41.0329 29.0651 40.8807 29.2172 40.6937 29.2172Z" fill="#005E92"/>
<defs>
<filter id="filter0_d_212_219" x="0.529411" y="0.956485" width="72.9412" height="72.9412" filterUnits="userSpaceOnUse" color-interpolation-filters="sRGB">
<feFlood flood-opacity="0" result="BackgroundImageFix"/>
<feColorMatrix in="SourceAlpha" type="matrix" values="0 0 0 0 0 0 0 0 0 0 0 0 0 0 0 0 0 0 127 0" result="hardAlpha"/>
<feOffset dy="4.70588"/>
<feGaussianBlur stdDeviation="8.23529"/>
<feColorMatrix type="matrix" values="0 0 0 0 0 0 0 0 0 0 0 0 0 0 0 0 0 0 0.15 0"/>
<feBlend mode="normal" in2="BackgroundImageFix" result="effect1_dropShadow_212_219"/>
<feBlend mode="normal" in="SourceGraphic" in2="effect1_dropShadow_212_219" result="shape"/>
</filter>
</defs>
</svg>
