<svg width="74" height="74" viewBox="0 0 74 74" fill="none" xmlns="http://www.w3.org/2000/svg">
<g filter="url(#filter0_d_212_229)">
<circle cx="37" cy="32.7212" r="20" fill="white"/>
</g>
<g clip-path="url(#clip0_212_229)">
<path d="M43.1144 38.6033V38.6027H43.1177V33.8565C43.1177 31.5347 42.6178 29.7461 39.9034 29.7461C38.5985 29.7461 37.7228 30.4622 37.3653 31.141H37.3276V29.9629H34.7539V38.6027H37.4338V34.3246C37.4338 33.1982 37.6473 32.1089 39.0423 32.1089C40.4168 32.1089 40.4372 33.3944 40.4372 34.3968V38.6033H43.1144Z" fill="#005E92"/>
<path d="M30.3901 29.9639H33.0733V38.6037H30.3901V29.9639Z" fill="#005E92"/>
<path d="M31.7303 25.6624C30.8724 25.6624 30.1763 26.3585 30.1763 27.2164C30.1763 28.0743 30.8724 28.785 31.7303 28.785C32.5882 28.785 33.2843 28.0743 33.2843 27.2164C33.2838 26.3585 32.5876 25.6624 31.7303 25.6624V25.6624Z" fill="#005E92"/>
</g>
<defs>
<filter id="filter0_d_212_229" x="0.529411" y="0.956485" width="72.9412" height="72.9412" filterUnits="userSpaceOnUse" color-interpolation-filters="sRGB">
<feFlood flood-opacity="0" result="BackgroundImageFix"/>
<feColorMatrix in="SourceAlpha" type="matrix" values="0 0 0 0 0 0 0 0 0 0 0 0 0 0 0 0 0 0 127 0" result="hardAlpha"/>
<feOffset dy="4.70588"/>
<feGaussianBlur stdDeviation="8.23529"/>
<feColorMatrix type="matrix" values="0 0 0 0 0 0 0 0 0 0 0 0 0 0 0 0 0 0 0.15 0"/>
<feBlend mode="normal" in2="BackgroundImageFix" result="effect1_dropShadow_212_229"/>
<feBlend mode="normal" in="SourceGraphic" in2="effect1_dropShadow_212_229" result="shape"/>
</filter>
<clipPath id="clip0_212_229">
<rect width="12.9412" height="12.9412" fill="white" transform="translate(29.9409 25.6624)"/>
</clipPath>
</defs>
</svg>
